<svg id="visual" viewBox="0 0 1920 1080" width="1920" height="1080" xmlns="http://www.w3.org/2000/svg" xmlns:xlink="http://www.w3.org/1999/xlink" version="1.1"><path d="M0 164L35.5 175.3C71 186.7 142 209.3 213.2 222.3C284.3 235.3 355.7 238.7 426.8 242.5C498 246.3 569 250.7 640 242.2C711 233.7 782 212.3 853.2 214C924.3 215.7 995.7 240.3 1066.8 233.7C1138 227 1209 189 1280 191C1351 193 1422 235 1493.2 232.7C1564.3 230.3 1635.7 183.7 1706.8 184.8C1778 186 1849 235 1884.5 259.5L1920 284L1920 0L1884.5 0C1849 0 1778 0 1706.8 0C1635.7 0 1564.3 0 1493.2 0C1422 0 1351 0 1280 0C1209 0 1138 0 1066.8 0C995.7 0 924.3 0 853.2 0C782 0 711 0 640 0C569 0 498 0 426.8 0C355.7 0 284.3 0 213.2 0C142 0 71 0 35.5 0L0 0Z" fill="#105e4e" stroke-linecap="round" stroke-linejoin="miter"></path></svg>